<svg xmlns="http://www.w3.org/2000/svg" xmlns:xlink="http://www.w3.org/1999/xlink" xmlns:inkscape="http://www.inkscape.org/namespaces/inkscape" version="1.1" width="841.92" height="595.2" viewBox="0 0 841.92 595.2">
<defs>
<clipPath id="clip_0">
<path transform="matrix(1,0,0,-1,0,595.2)" d="M0 595.2H841.92V0H0Z"/>
</clipPath>
</defs>
<g inkscape:groupmode="layer" inkscape:label="Layer 1">
<g clip-path="url(#clip_0)">
<path transform="matrix(1,0,0,-1,76.8,257.76)" d="M0 0C-1.105-1.488-1.038-1.626-1.44-3.36-1.535-3.769-1.986-4.055-1.986-5.04-1.986-6.026-1.547-6.287-1.44-6.72-.769-9.427-.865-8.778 .96-10.56 1.013-10.612 .798-11.18 1.274-11.546 3.913-13.574 8.467-12.978 11.527-13.686 8.041-36.039 .284-57.587-10.957-77.123-21.491-95.428-36.923-112.105-52.313-126.487-53.355-127.46-56.546-129.457-57.152-130.288-58.105-131.592-59.424-148.087-59.543-150.937-59.895-159.347-60.128-172.872-57.616-180.736-51.107-201.108-20.476-203.475-8.874-186.24L-8.145-186.463C.247-197.805 19.496-202.71 30.725-192.725 34.204-189.632 36.245-185.327 38.642-181.442 47.016-201.151 76.924-203.839 85.205-182.395 86.167-182.401 88.417-186.421 89.294-187.426 102.161-202.156 125.308-199.6 133.205-181.437L138.704-188.416C150.49-199.822 172.381-197.824 179.762-182.402 190.343-200.777 218.072-201.145 227.762-181.442 237.195-199.825 265.325-200.875 273.606-180.961 280.453-191.155 291.446-195.513 303.592-194.392 312.705-193.552 315.889-188.243 320.715-181.755 322.222-179.729 323.442-183.773 324.714-185.286 335.54-198.154 355.778-198.747 366.157-184.958 366.686-184.255 367.886-181.211 368.633-181.921 368.705-182.472 368.852-183.065 369.184-183.518 382.426-201.607 407.533-201.155 416.405-179.515 417.077-179.37 417.21-179.908 417.52-180.32 422.23-186.567 424.653-190.427 432.713-192.967 445.644-197.043 456.44-192.52 462.965-180.955 463.821-180.958 466.598-185.118 467.504-186.016 471.295-189.77 477.743-193.409 482.956-194.564 496.233-197.507 504.965-191.527 511.44-180.475 520.472-197.075 548.938-199.851 556.565-180.475 559.225-182.68 561.203-185.324 564.041-187.399 577.257-197.059 594.728-196.068 603.44-181.281 603.882-180.531 604.852-177.652 605.045-177.597 606.075-177.303 606.174-179.535 606.636-180.326 612.481-190.338 624.127-195.103 635.447-192.647 643.543-190.89 647.886-185.759 652.08-179.049 661.543-197.543 690.945-200.355 701.06-180.942 702.345-180.558 704.117-184.082 705.097-185.063 716.255-196.226 737.3-195.653 745.641-181.401 750.644-172.853 749.747-162.287 749.74-152.9 749.733-143.812 749.985-134.706 748.565-125.755 719.219-105.019 694.355-72.708 684.997-37.643 682.942-29.941 680.21-18.611 679.674-10.797 679.586-9.52 682.411-10.195 683.636-9.955 691.465-8.42 695.52 1.565 687.097 5.257 677.181 5.214 667.257 5.388 657.34 5.3 451.813 3.476 246.117 4.247 40.583 2.377 30.023 2.281 19.419 2.279 8.86 2.38 4.998 2.417 3 4.039 0 0M268.56 48H225.12C224.683 42.635 227.377 36.569 232.804 34.804 234.076 34.391 238.558 33.6 239.76 33.6H257.28L256.504 30.691 221.989 30.251 219.081 13.41 259.937 12.463C272.318 13.41 276.069 28.794 275.034 39.114 274.713 42.321 271.882 47.332 268.56 48M164.4 12.48H205.68C207.986 12.48 212.522 15.755 214.066 17.534 218.212 22.314 221.152 34.952 219.224 40.904 218.537 43.026 214.541 48 212.4 48H169.44C168.857 43.311 170.343 37.721 174.558 35.118 175.162 34.745 177.835 33.6 178.32 33.6H201.12C201.072 32.308 201.631 30.431 199.921 30.239L166.628 30.174 163.774 13.562ZM83.52 48H66.48C66.205 48 65.258 46.803 65.315 46.285L59.518 11.998 107.516 12.484 110.4 30.24H80.64ZM27.84 48H10.08C9.231 39.453 5.213 28.356 6.229 19.909 6.794 15.212 12.692 12.034 17.023 11.983L56.11 12.051C56.204 16.951 59.583 24.661 59.427 29.158 59.406 29.744 59.253 29.899 58.8 30.24H24.96ZM538.56 48.48H520.8L515.04 13.44H532.8ZM517.44 48.48H499.68L494.466 14.237C494.55 13.976 494.953 13.44 495.12 13.44H510.96ZM496.32 48.48H478.56L472.414 14.522 473.04 13.44H490.56ZM384.96 48.48H366.96L366.332 47.397 369.666 13.025 391.201 13.198 399.6 31.685C400.683 31.684 400.77 14.8 401.828 13.027L423.846 13.194 438.24 48.48H421.2L417.125 41.76 416.64 48.48H388.32L385.68 41.275ZM335.52 48.48H317.76C316.799 43.982 302.76 15.692 303.397 13.745 303.659 12.946 304.354 13.013 305.017 12.937 309.697 12.4 315.443 14.075 320.323 13.517L324.24 20.64H338.88C339.198 18.365 338.106 15.244 339.6 13.44H356.64L354 48.48H337.2C336.519 48.057 336.533 47.52 336.451 46.82 336.25 45.112 337.65 36.69 336.962 35.998L330.967 35.512C329.461 35.585 336.64 47.362 335.52 48.48M108.48 12.48H126L129.84 19.68H144L144.546 12.786 145.267 12.067 162.242 12.478 159.6 48H142.8C141.168 46.406 142.517 43.93 142.58 42.02 142.656 39.7 142.484 37.354 142.562 35.038L136.322 35.043C135.593 35.738 140.222 44.426 140.545 45.951 140.693 46.653 140.871 47.79 140.189 48.27L123.113 47.527ZM625.68 13.44H661.68C675.838 13.44 681.322 26.203 680.657 38.657 680.374 43.96 677.061 48.116 671.761 48.961L631.999 48.881C629.352 47.984 631.633 40.69 632.911 38.911 633.629 37.911 637.189 35.04 638.16 35.04H662.4L661.601 31.18 628.288 31.472 624.984 14.592C624.912 14.174 625.366 13.533 625.68 13.44M593.76 48.96H576.72C576.267 48.96 575.72 47.739 575.554 47.246 574.21 43.245 572.709 31.653 572.243 27.041 570.842 13.154 579.08 13.237 590.183 13.417 591.552 13.439 592.732 13.925 593.98 13.94 603.559 14.051 615.715 11.484 621.694 20.786 624.335 24.894 627.595 42.191 627.813 47.354 627.837 47.909 627.636 48.96 627.12 48.96H602.4L600.459 35.359C600.751 34.15 606.095 34.655 607.202 34.562L606.48 31.2H591.36ZM572.642 48.482C569.983 48.524 556.242 49.806 555.115 48.485 553.352 38.802 551.094 29.048 549.739 19.301 549.556 17.984 548.635 13.848 549.571 13.161L566.65 13.91ZM461.52 48.96H445.68C445.404 48.96 444.457 47.762 444.517 47.243 443.917 37.08 439.718 25.493 439.195 15.58 439.156 14.841 439.071 14.103 439.411 13.408 440.442 11.925 454.359 13.941 456.962 13.438 456.971 14.454 456.876 15.481 457.021 16.5 458.337 25.686 461.813 37.506 462.245 46.34 462.294 47.331 462.436 48.342 461.52 48.96M222.72 51.36C222.927 56.051 226.136 63.74 225.986 68.038 225.966 68.624 225.813 68.779 225.36 69.12H183.6C182.844 69.12 178.749 67.202 177.919 66.641 173.124 63.397 170.136 57.157 170.88 51.36ZM521.28 69.6H503.76L503.13 68.79 500.64 51.84H518.4ZM422.88 51.84H439.92L447.28 68.035C447.615 68.548 446.971 69.6 446.64 69.6H430.32C429.81 69.263 429.554 68.779 429.24 68.28 428.128 66.507 423.658 56.28 423.106 54.254 422.884 53.439 422.799 52.679 422.88 51.84M415.2 69.6H398.16C397.652 69.262 397.393 68.78 397.081 68.279 396.228 66.912 391.197 55.191 390.922 53.784 390.791 53.11 390.5 52.477 390.922 51.809 391.808 50.587 395.779 51.816 397.18 51.86 403.347 52.051 409.552 51.501 415.711 52.049 416.967 52.925 414.946 67.14 415.2 69.6M366.72 51.84H383.76C384.948 52.612 384.003 53.719 383.976 54.939 383.879 59.451 383.664 63.881 383.519 68.399L382.8 69.6H365.28ZM319.68 51.84H353.52C353.725 51.84 354.327 52.592 354.218 52.992L352.831 69.39 328.053 69.627 326.636 69.124C326.023 66.796 318.839 52.693 319.68 51.84M280.8 69.6H242.16C241.279 69.6 238.302 68.636 237.276 68.244 230.345 65.597 226.497 59.18 226.558 51.838L277.926 51.594C278.44 51.998 278.582 52.574 278.756 53.164 279.246 54.833 281.386 69.013 280.8 69.6M125.52 51.36H158.64C159.325 51.781 159.302 52.317 159.384 53.016 159.98 58.09 158.325 63.644 158.9 68.801 158.496 70.536 150.589 69.135 149.06 69.1 143.541 68.974 137.978 69.432 132.474 68.886L124.868 52.477ZM66.72 51.36H80.4C81.123 51.36 84.13 51.964 84.388 52.652 85.924 56.736 85.577 63.659 87.244 68.029 87.395 68.534 86.329 69.6 86.16 69.6H69.84C68.827 68.155 68.679 65.776 68.311 63.929 67.978 62.259 66.167 51.914 66.72 51.36M11.28 51.36H62.64C63.148 51.65 63.195 52.082 63.338 52.582 63.841 54.332 66.352 68.527 65.762 69.122 53.315 68.828 40.002 70.547 27.581 69.619 19.787 69.036 13.18 64.418 11.264 56.655 11.031 55.71 10.034 51.741 11.28 51.36M632.16 52.32H684L686.331 69.531C685.535 69.949 684.668 70.038 683.781 70.102 674.164 70.793 663.62 70.037 654.02 69.58 647.432 69.267 643.918 70.67 638.242 66.158 634.422 63.122 631.465 57.197 632.16 52.32M630.48 70.08H591.12C588.588 70.08 582.578 66.066 580.81 64.07 578.406 61.359 576.017 56.048 576.935 52.534L628.256 51.903C629.018 56.656 630.786 62.289 631.142 67.026 631.225 68.124 631.523 69.357 630.48 70.08M573.484 52.439C575.484 59.086 573.357 68.901 565.22 69.62L525.933 69.987C525.073 69.728 524.927 69.12 524.653 68.387 524.196 67.165 521.682 54.505 521.747 53.514 521.822 52.365 522.497 52.411 523.417 52.297 534.388 50.942 550.218 52.538 561.86 52.34 564 52.303 572.165 50.909 573.484 52.439M446.16 51.84H497.04C500.155 57.936 497.438 66.62 490.896 69.215 487.944 70.387 487.55 69.564 485.059 69.577 473.08 69.642 461.096 69.643 449.119 69.521 448.404 69.28 448.126 68.47 447.953 67.807 447.228 65.015 445.57 56.129 445.464 53.449 445.44 52.843 445.536 52.031 446.16 51.84M403.92 121.92H357.12C356.544 117.088 357.784 111.727 361.951 108.751 362.512 108.351 366.106 106.56 366.48 106.56H391.92C392.97 106.56 392.772 102.918 391.84 102.701L353.971 101.789 350.878 82.558C361.83 82.76 372.825 82.303 383.78 82.54 387.65 82.624 391.472 82.545 395.281 82.56 408.438 82.612 413.99 100.876 412.749 111.548 412.253 115.811 408.287 121.196 403.92 121.92M347.04 82.56 351.373 107.306C351.439 110.043 350.462 111.884 348.941 114L353.21 120.816 352.56 121.92H295.92C294.867 120.604 294.731 118.449 294.38 116.74 292.557 107.858 290.779 97.403 289.579 88.42 289.442 87.391 288.34 82.08 289.68 82.08H307.92L313.2 106.08H330.72L326.904 83.712C326.799 83.313 327.39 82.56 327.6 82.56ZM266.64 121.92H215.28L208.8 82.56H227.28L231.862 106.056 264.993 106.767C265.55 107.169 267.273 118.89 267.333 120.314 267.359 120.922 267.267 121.728 266.64 121.92M451.2 82.56 458.377 120.791C458.599 121.3 458.047 122.4 457.68 122.4H439.44C438.752 122.4 438.075 120.284 437.891 119.629 434.82 108.668 434.616 95.335 431.544 84.169 431.321 83.659 431.873 82.56 432.24 82.56ZM265.44 82.56H284.4L285.03 83.37 291.787 121.603 291.12 122.4H272.88C271.392 122.4 271.114 118.472 270.86 117.22 268.54 105.813 267.067 94.07 265.44 82.56M271.68 145.44H219.6L218.982 144.617C218.293 138.349 215.987 131.986 216.211 125.728 216.727 124.985 227.395 125.22 229.22 125.26 230.355 125.285 231.406 125.763 232.54 125.78 244.19 125.954 255.857 125.529 267.505 125.855 268.416 126.128 268.502 126.703 268.766 127.474 269.307 129.05 272.322 144.795 271.68 145.44M478.08 126.24 481.414 144.768 480.983 145.701 424.146 145.374C423.371 145.112 423.302 144.184 423.11 143.53 421.632 138.493 421.428 132.524 420.025 127.39 419.917 126.991 420.513 126.24 420.72 126.24ZM418.32 145.92H374.64C373.783 145.92 369.455 144.434 368.456 143.944 362.413 140.975 358.359 132.904 358.629 126.308 359.518 124.885 369.28 126.221 371.26 126.26 386.352 126.554 401.486 125.945 416.574 126.305L419.442 145.36C419.069 145.445 418.58 145.876 418.32 145.92M354.174 125.825C356.969 133.408 354.025 144.412 344.881 145.441 338.597 146.149 328.536 145.854 321.86 145.94 314.579 146.033 307.254 146.016 299.982 145.698L296.221 126.997C296.412 126.435 296.834 126.325 297.36 126.239 298.72 126.015 301.6 125.82 303.1 125.74 319.823 124.856 337.373 126.388 354.174 125.825M295.68 145.92H276.72C276.53 145.92 275.72 144.987 275.635 144.605L272.64 125.76H291.6C292.221 126.252 292.435 126.849 292.668 127.572 293.201 129.225 296.336 145.261 295.68 145.92" fill="#fefefe"/>
<path transform="matrix(1,0,0,-1,206.4,270.24003)" d="M0 0H-35.52C-37.133-12.201-40.368-24.724-43.816-36.584-47.986-50.925-53.203-66.454-60.398-79.522-68.757-94.705-79.706-108.406-90.709-121.691-89.777-134.398-91.446-148.454-89.127-160.887-84.156-187.539-48.398-189.09-45.606-159.114-44.396-146.117-45.624-132.484-45.018-119.382-21.104-83.865-.325-43.994 0 0M-37.918 .002C-46.774-.3-55.728 .392-64.58 .02-65.601-.023-66.497-.409-67.445-.475-69.1-.589-73.048 .036-73.968-1.152-77.304-22.408-83.873-42.911-93.83-61.93-102.025-77.586-112.665-91.71-124.073-105.127-126.638-108.143-135.715-116.566-136.583-119.501-137.056-121.099-136.246-128.725-136.3-131.3-136.51-141.301-138.753-157.993-135.588-167.028-129.228-185.187-103.524-186.004-94.62-167.7-90.752-159.751-92.461-157.025-92.66-149.06-92.905-139.264-92.327-129.416-92.812-119.635-92.511-118.832-91.524-119.083-90.996-118.544-62.749-89.73-46.948-47.629-39.115-8.645-38.541-5.791-37.728-2.934-37.918 .002M-138.72-118.08C-133.257-113.027-124.752-102.54-119.753-96.487-97.38-69.394-81.492-35.92-77.335-.757L-78.482-.001-114.242-.958C-115.965-22.802-124.81-44.182-135.277-63.203-145.54-81.852-159.338-98.145-174.72-112.8-176.726-114.711-182.143-118.022-183.386-120.214-183.858-121.046-184.259-125.127-184.34-126.46-184.91-135.818-185.55-151.522-184.264-160.504-180.45-187.132-143.285-186.716-139.738-161.462ZM78.72 .48H43.2C42.81-7.95 41.731-16.293 40.17-24.57 34.813-52.982 27.549-80.549 13.523-105.923 11.656-109.3 4.649-119.357 4.309-122.149 3.393-129.681 4.75-139.336 3.82-147.14 3.689-166.393 13.247-183.874 35.038-177.358 56.473-170.949 46.796-135.21 48.472-118.786 57.758-103.897 63.528-85.419 68.123-68.363 74.108-46.144 78.696-22.606 78.72 .48M40.802 .483 2.398 .002C1.752-36.43-12.239-71.129-31.001-101.719-34.884-108.05-39.881-113.801-42.691-120.749-42.054-132.601-44.046-144.965-43.222-156.742-41.09-187.18 1.298-187.683 2.418-157.219 2.492-155.212 1.913-153.637 1.9-151.94 1.816-141.095 1.625-130.166 2.5-119.38 21.931-91.891 30.95-59.701 37.292-26.972 39.048-17.909 40.732-8.793 40.802 .483M159.84 .96C159.847-4.864 159.71-10.742 159.355-16.555 157.498-46.958 155.254-77.414 148.662-107.142 147.161-113.906 145.246-117.735 145.42-125.06 145.45-126.331 145.936-127.487 145.943-128.857 146.03-145.465 140.17-167.847 159.513-175.767 174.991-182.104 186.806-173.205 191.478-158.598 189.625-126.939 193.188-95.593 194.885-64.085 195.883-45.563 196.315-27.02 196.823-8.423 196.901-5.569 197.281-1.403 196.08 .96ZM157.44 .96H122.16L121.439-.239C118.404-40.703 115.267-82.097 99.504-119.822 101.093-138.456 90.824-168.283 113.913-177.207 123.099-180.757 135.097-176.6 139.928-168.008 144.628-159.649 143.676-135.773 143.54-125.5 143.424-116.768 144.214-116.006 146.073-107.913 152.862-78.364 154.754-49.635 156.485-19.445 156.875-12.649 157.869-5.881 157.44 .96M119.039 .962 81.118 .482C80.887-21.961 76.659-44.785 71.002-66.442 66.068-85.334 59.835-104.077 50.381-121.177 54.113-138.427 44.034-165.233 61.958-175.882 77.074-184.862 94.779-176.098 96.476-158.636 97.692-146.125 95.727-131.526 97.482-118.842 97.869-116.043 100.305-111.636 101.288-108.728 109.835-83.454 113.908-58.455 116.638-31.918 117.76-21.009 118.412-9.963 119.039 .962M275.52 1.44H237.12L237.1-48.26C236.817-81.204 243.125-115.855 241.46-148.58 241.182-154.039 239.224-158.497 241.208-163.672 247.743-180.715 271.549-186.128 281.362-168.802 287.21-158.478 285.435-151.81 285.577-140.857 285.67-133.699 286.863-125.988 286.084-118.796 285.738-115.602 284.029-111.062 283.348-107.612 276.92-75.032 273.839-36.781 275.02-3.58 275.079-1.94 275.83-.299 275.52 1.44M199.44 1.44C198.755 1.019 198.778 .483 198.696-.216 197.575-9.763 198.961-22.835 198.74-32.9 197.868-72.629 191.309-113.405 193.915-152.885 194.377-159.891 194.063-163.804 198.73-169.67 209.996-183.826 231.584-179.236 236.984-162.344 241.002-149.774 238.951-128.696 238.085-115.435 236.594-92.595 235.813-69.654 235.22-46.78 235.19-45.644 234.723-44.595 234.7-43.46 233.314-29.764 236.79-13.556 235.224-.216 235.142 .483 235.165 1.019 234.48 1.44ZM390.72 1.92H355.68C354.328-38.801 365.572-79.864 383.441-116.041 384.173-136.571 374.408-179.449 407.78-177.141 432.904-175.403 426.546-133.021 426.742-116.378L426.454-115.226C403.021-80.872 391.861-39.595 390.72 1.92M353.28 1.92H316.56C315.875 1.499 315.898 .963 315.816 .264 315.083-5.981 315.56-17.192 315.82-23.78 316.893-50.916 323.373-78.633 330.376-104.743 331.322-108.266 334.095-114.516 334.53-117.39 335.131-121.357 334.383-127.049 334.54-131.3 334.855-139.831 334.925-148.21 334.999-156.717 335.14-172.727 355.79-183.145 369.275-174.635 389.288-162.004 377.522-135.797 380.979-116.46 363.115-80.137 352.073-38.908 353.28 1.92M277.437 1.442C277.052-35.435 278.506-71.901 285.748-108.092 286.388-111.29 288.062-115.524 288.439-118.361 290.279-132.22 283.782-155.882 292.602-167.478 301.477-179.148 318.686-181.081 328.31-169.19 335.395-160.434 332.883-149.35 332.62-138.98 332.463-132.765 333.015-123.176 332.13-117.39 331.585-113.825 328.598-107.002 327.497-102.823 320.277-75.423 314.44-47.38 313.42-18.98L313.851 1.134 313.471 1.71ZM544.8-176.64C561.326-179.679 569.333-167.977 569.778-152.902 569.841-150.75 569.267-148.953 569.26-147.14 569.223-137.224 568.936-127.357 568.71-117.45 560.409-109.758 552.975-101.046 546.05-92.11 524.976-64.919 507.589-32.822 506.4 2.4H470.4C469.962-12.859 473.581-28.167 478.551-42.489 487.942-69.548 503.542-94.281 523.102-115.058 523.456-121.924 523.854-128.732 523.7-135.62 523.437-147.365 520.633-154.361 527.363-165.022 532.353-172.927 535.029-173.774 543.84-176.64 543.967-176.681 544.155-177.161 544.512-177.106ZM468 2.4H432C432.232-17.197 435.551-36.46 442.201-54.839 450.095-76.65 461.904-98.485 477.045-116.015 477.571-134.662 470.523-175.386 498.937-176.183 512.437-176.562 520.02-166.987 520.82-154.34 521.575-142.406 521.047-129.867 521.238-117.882 521.018-116.779 520.677-115.691 520.057-114.743 518.094-111.738 512.879-107.123 510.252-103.908 492.311-81.95 477.409-52.699 471.114-24.966 469.078-15.999 467.822-6.832 468 2.4M393.118 1.922C394.009-32.669 401.985-67.35 418.477-97.763 421.761-103.819 425.799-109.449 429.011-115.549 428.757-120.123 429.535-124.903 429.623-129.337 429.94-145.295 423.77-166.095 441.908-174.172 458.663-181.632 474.299-167.818 475.217-150.977L474.143-116.497C447.636-83.095 429.856-41.332 429.871 1.951ZM543.6 2.88H508.8C509.555-32.544 527.682-64.94 548.93-92.11 555.762-100.846 563.007-109.431 571.456-116.65 571.129-122.139 571.065-127.714 571.177-133.223 571.487-148.435 568.903-168.196 586.31-174.73 602.603-180.847 614.761-169.38 615.86-153.38 616.673-141.524 615.552-128.402 615.257-116.503 614.891-114.857 609.435-111.921 607.721-110.599 584.921-93.016 562.163-60.184 552.942-32.898 549.085-21.484 547.169-9.55 545.153 2.272 544.656 2.369 543.993 2.819 543.6 2.88M-129.6 12.48C-126.6 16.519-124.602 14.897-120.74 14.86-110.181 14.759-99.577 14.761-89.017 14.857 116.517 16.727 322.213 15.956 527.74 17.78 537.657 17.868 547.581 17.694 557.497 17.737 565.92 14.045 561.865 4.06 554.036 2.525 552.811 2.285 549.986 2.961 550.074 1.683 550.61-6.131 553.342-17.461 555.397-25.163 564.755-60.228 589.619-92.539 618.965-113.275 620.385-122.226 620.133-131.332 620.14-140.42 620.147-149.807 621.044-160.373 616.041-168.921 607.7-183.173 586.655-183.746 575.497-172.583 574.517-171.602 572.745-168.078 571.46-168.462 561.345-187.875 531.943-185.063 522.48-166.569 518.286-173.279 513.943-178.41 505.847-180.167 494.527-182.623 482.881-177.858 477.036-167.846 476.574-167.055 476.475-164.823 475.445-165.117 475.252-165.172 474.282-168.051 473.84-168.801 465.128-183.588 447.657-184.579 434.441-174.919 431.603-172.844 429.625-170.2 426.965-167.995 419.338-187.371 390.872-184.595 381.84-167.995 375.365-179.047 366.633-185.027 353.356-182.084 348.143-180.929 341.695-177.29 337.904-173.536 336.998-172.638 334.221-168.478 333.365-168.475 326.84-180.04 316.044-184.563 303.113-180.487 295.053-177.947 292.63-174.087 287.92-167.84 287.61-167.428 287.477-166.89 286.805-167.035 277.933-188.675 252.826-189.127 239.584-171.038 239.252-170.585 239.105-169.992 239.033-169.441 238.286-168.731 237.086-171.775 236.557-172.478 226.178-186.267 205.94-185.674 195.114-172.806 193.842-171.293 192.622-167.249 191.115-169.275 186.289-175.763 183.105-181.072 173.992-181.912 161.846-183.033 150.853-178.675 144.006-168.481 135.725-188.395 107.595-187.345 98.162-168.962 88.472-188.665 60.743-188.297 50.162-169.922 42.781-185.344 20.89-187.342 9.104-175.936L3.605-168.957C-4.292-187.12-27.439-189.676-40.306-174.946-41.183-173.941-43.433-169.921-44.395-169.915-52.676-191.359-82.584-188.671-90.958-168.962-93.355-172.847-95.396-177.152-98.875-180.245-110.104-190.23-129.353-185.325-137.745-173.983L-138.474-173.76C-150.076-190.994-180.707-188.628-187.216-168.256-189.728-160.392-189.495-146.867-189.143-138.457-189.024-135.607-187.705-119.112-186.752-117.808-186.146-116.977-182.955-114.98-181.913-114.007-166.523-99.625-151.091-82.948-140.557-64.643-129.316-45.107-121.559-23.559-118.073-1.206-121.133-.498-125.687-1.094-128.326 .934-128.802 1.3-128.587 1.868-128.64 1.92-95.512 2.927-62.221 2.129-29.02 2.38 69.631 3.127 168.434 4.91 267.1 5.78 347.848 6.492 428.854 5.679 509.5 7.7 517.185 7.892 524.875 7.76 532.555 8.165L557.758 10.565 551.04 11.52C549.922 11.538 548.797 11.493 547.68 11.52 546.745 12.291 545.255 12.291 544.32 11.52 543.68 11.53 543.04 11.512 542.4 11.52 542.668 12.974 541.667 12.444 540.742 12.48 492.949 14.35 445.018 13.012 397.223 12.937 249.23 12.704 101.153 13.098-46.777 12.457-74.383 12.337-102.001 12.594-129.6 12.48" fill="#0f1420"/>
<path transform="matrix(1,0,0,-1,748.8,258.72)" d="M0 0C.64-.008 1.28 .01 1.92 0 2.836-.014 4.432 .02 5.28 0 6.397-.026 7.522 .018 8.64 0 8.907-1.521 7.876-.855 6.966-.945-4.854-2.114-17.158-1.684-29.06-1.9-82.215-2.866-135.653-2.978-188.86-3.38-340.237-4.522-491.564-5.416-642.937-6.743-650.812-6.812-662.432-7.624-669.851-6.732-671.526-6.531-672.128-5.18-673.44-5.76-673.547-5.327-673.986-5.066-673.986-4.08-673.986-3.095-673.535-2.809-673.44-2.4-671.961-2.787-671.327-1.597-669.383-1.417-649.625 .413-627.403-3.24-607.463-.937-438.158-.733-268.826-.605-99.577-.023-66.389 .091-33.21 .421 0 0" fill="#fc7106"/>
<path transform="matrix(1,0,0,-1,757.44,258.72)" d="M0 0 6.718-.955-18.485-3.355C-26.165-3.76-33.855-3.628-41.54-3.82-122.186-5.841-203.192-5.028-283.94-5.74-382.606-6.61-481.409-8.393-580.06-9.14-613.261-9.391-646.552-8.593-679.68-9.6-681.505-7.818-681.409-8.467-682.08-5.76-680.768-5.18-680.166-6.531-678.491-6.732-671.072-7.624-659.452-6.812-651.577-6.743-500.204-5.416-348.877-4.522-197.5-3.38-144.293-2.978-90.855-2.866-37.7-1.9-25.798-1.684-13.494-2.114-1.674-.945-.764-.855 .267-1.521 0 0" fill="#3a291b"/>
<path transform="matrix(1,0,0,-1,76.8,257.76)" d="M0 0C27.599 .114 55.217-.143 82.823-.023 230.753 .618 378.83 .224 526.823 .457 574.618 .532 622.549 1.87 670.342 0 671.267-.036 672.268 .494 672-.96 638.79-.539 605.611-.869 572.423-.983 403.174-1.565 233.842-1.693 64.537-1.897 44.597-4.2 22.375-.547 2.617-2.377 .673-2.557 .039-3.747-1.44-3.36-1.038-1.626-1.105-1.488 0 0" fill="#3a291b"/>
<path transform="matrix(1,0,0,-1,460.32,210.72)" d="M0 0H-15.36L-12.96-32.64H6.48C10.498-26.767 12.143-18.607 15.575-12.455 15.919-11.838 16.143-10.984 17.037-11.035 18.144-10.841 17.695-11.53 17.755-12.237 18.332-19.023 18.943-25.831 19.2-32.64H39.12L52.8 0H39.6C36.446 0 35.947-9.286 32.16-9.12V-.72L31.44 0H6.48L2.129-9.628 .482-9.602ZM1.44 1.44 2.16-5.765 4.8 1.44H33.12L33.605-5.28 37.68 1.44H54.72L40.326-33.846 18.309-34.013C17.25-32.24 17.163-15.356 16.08-15.355L7.682-33.841-13.854-34.015-17.188 .357-16.56 1.44Z" fill="#3a291b"/>
<path transform="matrix(1,0,0,-1,480.24,137.28)" d="M0 0H-44.88C-45.295-3.402-44.094-7.494-41.491-9.811-41.029-10.222-37.223-12.48-36.96-12.48H-10.08C-8.693-13.41-9.278-18.68-10.626-19.134L-48.216-19.705-51.121-36.478-6.701-36.019C3.956-34.271 7.479-22.637 7.913-13.197 8.155-7.931 6.135-1.022 0 0M.48 1.44C4.847 .716 8.813-4.669 9.309-8.932 10.55-19.604 4.998-37.868-8.159-37.92-11.968-37.935-15.79-37.856-19.66-37.94-30.615-38.177-41.61-37.72-52.562-37.922L-49.469-18.691-11.6-17.779C-10.668-17.562-10.47-13.92-11.52-13.92H-36.96C-37.334-13.92-40.928-12.129-41.489-11.729-45.656-8.753-46.896-3.392-46.32 1.44Z" fill="#3a291b"/>
<path transform="matrix(1,0,0,-1,428.16,137.28)" d="M0 0H-54.72L-60.96-36.96H-44.88L-39.12-12.96H-18.72L-22.56-36.48H-6L-5.37-35.67-1.439-12.712C-1.593-10.008-3.371-8.151-4.766-6.065ZM-4.32-37.92H-23.76C-23.97-37.92-24.561-37.167-24.456-36.768L-20.64-14.4H-38.16L-43.44-38.4H-61.68C-63.02-38.4-61.918-33.089-61.781-32.06-60.581-23.077-58.803-12.622-56.98-3.74-56.629-2.031-56.493 .124-55.44 1.44H1.2L1.85 .336-2.419-6.48C-.898-8.596 .079-10.437 .013-13.174Z" fill="#3a291b"/>
<path transform="matrix(1,0,0,-1,344.88,211.20001)" d="M0 0H-41.52C-40.139-15.294-24.443-10.19-13.902-11.022-8.201-11.472-9.244-12.099-9.84-17.28H-44.88L-47.282-32.161C-35.202-32.212-23.107-32.098-11.021-32.138-8.464-32.147-8.097-32.941-5.054-31.905 3.569-28.972 6.332-15.954 5.514-7.926 5.214-4.977 3.192-.641 0 0M.48 1.44C3.802 .772 6.633-4.239 6.954-7.446 7.989-17.766 4.238-33.15-8.143-34.097L-48.999-33.15-46.091-16.309-11.576-15.869-10.8-12.96H-28.32C-29.522-12.96-34.004-12.169-35.276-11.756-40.703-9.991-43.397-3.925-42.96 1.44Z" fill="#3a291b"/>
<path transform="matrix(1,0,0,-1,242.4,243.84003)" d="M0 0H37.68C42.574 0 47.121 3.315 49.355 7.525 51.58 11.719 53.575 22.014 52.183 26.502 51.623 28.306 48.076 32.64 46.32 32.64H5.28C4.263 28.332 8.666 21.12 13.2 21.12H36.72C37.782 20.494 36.823 15.014 36.16 14.861L1.917 14.403ZM-1.2-1.44-1.826-.358 1.028 16.254 34.321 16.319C36.031 16.511 35.472 18.388 35.52 19.68H12.72C12.235 19.68 9.562 20.825 8.958 21.198 4.743 23.801 3.257 29.391 3.84 34.08H46.8C48.941 34.08 52.937 29.106 53.624 26.984 55.552 21.032 52.612 8.394 48.466 3.614 46.922 1.835 42.386-1.44 40.08-1.44Z" fill="#3a291b"/>
<path transform="matrix(1,0,0,-1,703.68,242.88)" d="M0 0H34.32C34.921 0 38.078 .525 38.906 .694 47.49 2.447 50.602 8.545 51.779 16.622 52.349 20.542 53.047 25.414 50.661 28.821 49.894 29.917 46.621 32.64 45.36 32.64H6C3.912 32.64 6.76 24.962 8.393 23.513 8.725 23.219 11.566 21.6 11.76 21.6H36.72C38.19 21.6 36.536 15.767 36.201 14.852L2.422 15.336ZM-1.2-1.44C-1.514-1.347-1.968-.706-1.896-.288L1.408 16.592 34.721 16.3 35.52 20.16H11.28C10.309 20.16 6.749 23.031 6.031 24.031 4.753 25.811 2.472 33.104 5.119 34.001L44.881 34.081C50.181 33.236 53.494 29.08 53.777 23.777 54.442 11.323 48.958-1.44 34.8-1.44Z" fill="#3a291b"/>
<path transform="matrix(1,0,0,-1,669.12,210.24002)" d="M0 0H-14.64C-15.47-.692-15.481-1.816-15.691-2.789-16.753-7.69-19.284-21.244-18.677-25.638-18.384-27.759-16.007-31.305-13.947-31.947-11.605-32.676-5.298-32.689-2.617-32.663-1.248-32.65-.066-32.149 1.18-32.14 12.53-32.064 25.755-35.136 30.011-21.611 32.074-15.053 32.764-6.841 33.6 0H11.52L9.659-10.763C10.058-12.458 15.66-10.705 16.597-11.985L15.84-17.76H-2.16C-2.676-17.76-2.877-16.709-2.853-16.154-2.646-11.252-.444-5.044 0 0M1.44 1.44-.96-16.32H14.16L14.882-12.958C13.775-12.865 8.431-13.37 8.139-12.161L10.08 1.44H34.8C35.316 1.44 35.517 .389 35.493-.166 35.275-5.329 32.015-22.626 29.374-26.734 23.395-36.036 11.239-33.469 1.66-33.58 .412-33.595-.768-34.081-2.137-34.103-13.24-34.283-21.478-34.366-20.077-20.479-19.611-15.867-18.11-4.275-16.766-.274-16.6 .219-16.053 1.44-15.6 1.44Z" fill="#3a291b"/>
<path transform="matrix(1,0,0,-1,410.4,210.72)" d="M0 0H-14.88L-28.318-32.638-14.242-32.179-10.566-25.194 6.172-24.547 6.72-32.16H21.6L19.68 0H4.32L5.079-12.023C3.154-12.354-5.02-14.534-4.802-11.321-4.688-9.636 .71-.688 0 0M1.92 1.44C3.04 .322-4.139-11.455-2.633-11.528L3.362-11.042C4.05-10.35 2.65-1.928 2.851-.22 2.933 .48 2.919 1.017 3.6 1.44H20.4L23.04-33.6H6C4.506-31.796 5.599-28.675 5.28-26.4H-9.36L-13.277-33.523C-18.157-32.965-23.903-34.639-28.583-34.103-29.246-34.027-29.941-34.094-30.203-33.295-30.84-31.348-16.801-3.058-15.84 1.44Z" fill="#3a291b"/>
<path transform="matrix(1,0,0,-1,215.52,211.20001)" d="M0 0H-14.16L-28.32-32.64H-13.68L-10.56-25.44H6.72L7.198-33.123 22.082-32.639 19.44 0H5.52C5.315 0 4.713-.752 4.822-1.152L5.76-12.96H-4.32C-5.025-10.856 .84-.8 0 0M-30.24-34.08-15.607 .967 1.469 1.71C2.151 1.23 1.973 .093 1.825-.609 1.502-2.134-3.127-10.822-2.398-11.517L3.842-11.522C3.764-9.206 3.936-6.86 3.86-4.54 3.797-2.63 2.448-.154 4.08 1.44H20.88L23.522-34.082 6.547-34.493 5.826-33.774 5.28-26.88H-8.88L-12.72-34.08Z" fill="#3a291b"/>
<path transform="matrix(1,0,0,-1,287.04,173.76001)" d="M0 0H16.32L20.612 23.308 53.736 24.026 55.202 36.482 5.81 35.949ZM56.4 37.92C57.027 37.728 57.119 36.922 57.093 36.314 57.033 34.89 55.31 23.169 54.753 22.767L21.622 22.056 17.04-1.44H-1.44L5.04 37.92Z" fill="#3a291b"/>
<path transform="matrix(1,0,0,-1,158.4,211.20001)" d="M0 0H-14.16L-20.638-33.117 24.161-32.659 26.88-17.76H-2.16C-2.675-17.76-2.878-16.704-2.856-16.151-2.768-13.906 .704-.706 0 0M1.92 1.44-.96-16.32H28.8L25.916-34.076-22.082-34.562-16.285-.275C-16.342 .243-15.395 1.44-15.12 1.44Z" fill="#3a291b"/>
<path transform="matrix(1,0,0,-1,103.2,211.20001)" d="M0 0H-15.36C-15.638-7.05-18.254-14.437-18.714-21.366-19.254-29.501-16.558-32.522-8.419-33.139 3.298-34.027 16.177-32.49 28.017-33.057 28.453-32.968 28.569-32.685 28.709-32.309 30.118-28.533 30.182-21.895 31.2-17.76H-2.88ZM1.44 1.44-1.44-16.32H32.4C32.853-16.661 33.006-16.816 33.027-17.402 33.183-21.899 29.804-29.609 29.71-34.509L-9.377-34.577C-13.708-34.526-19.606-31.348-20.171-26.651-21.187-18.204-17.169-7.107-16.32 1.44Z" fill="#3a291b"/>
<path transform="matrix(1,0,0,-1,498.24,130.08002)" d="M0 0H55.68L58.082 16.802C39.812 16.816 21.616 16.232 3.328 16.112ZM56.64-1.44H-.72C-.927-1.44-1.523-.689-1.415-.29-.012 4.844 .192 10.813 1.67 15.85 1.862 16.504 1.931 17.432 2.706 17.694L59.543 18.021 59.974 17.088Z" fill="#0f1420"/>
<path transform="matrix(1,0,0,-1,346.56,113.76001)" d="M0 0H-49.44L-52.258-16.523C-51.879-18.079-48.449-16.819-47.3-16.78-32.628-16.284-17.862-17.244-3.183-16.737-2.747-16.648-2.631-16.365-2.491-15.989-1.977-14.611 .571-.573 0 0M1.92 1.44C2.562 .795-.453-14.95-.994-16.526-1.258-17.297-1.344-17.872-2.255-18.145-13.903-18.471-25.57-18.046-37.22-18.22-38.354-18.237-39.405-18.715-40.54-18.74-42.365-18.78-53.033-19.015-53.549-18.272-53.773-12.014-51.467-5.651-50.778 .618L-50.16 1.44Z" fill="#0f1420"/>
<path transform="matrix(1,0,0,-1,430.08,130.56)" d="M0 0C1.782 6.982-.615 16.09-8.86 16.82-15.258 17.386-22.586 17.198-29.02 17.3-36.78 17.423-44.633 17.341-52.353 17.073L-55.2 0ZM.894-1.375C-15.907-.812-33.457-2.344-50.18-1.46-51.68-1.38-54.56-1.185-55.92-.961-56.446-.875-56.868-.765-57.059-.203L-53.298 18.498C-46.026 18.816-38.701 18.833-31.42 18.74-24.744 18.654-14.683 18.949-8.398 18.241 .745 17.212 3.689 6.208 .894-1.375" fill="#0f1420"/>
<path transform="matrix(1,0,0,-1,89.28,204.96002)" d="M0 0H49.44L51.841 14.878C44.722 14.955 37.584 14.79 30.46 14.86 23.469 14.929 13.234 17.016 7.04 12.88 2.986 10.172-.339 5.004 0 0M-1.2-1.44C-2.446-1.059-1.449 2.91-1.216 3.855 .7 11.618 7.307 16.236 15.101 16.819 27.522 17.747 40.835 16.028 53.282 16.322 53.872 15.727 51.361 1.532 50.858-.218 50.715-.718 50.668-1.15 50.16-1.44Z" fill="#0f1420"/>
<path transform="matrix(1,0,0,-1,600.48,204)" d="M0 0H48.24C50.25 3.641 48.425 11.508 44.495 13.535 43.144 14.232 42.054 14.311 40.58 14.42 28.265 15.329 14.833 13.703 2.403 14.397ZM49.804-1.321C48.485-2.851 40.32-1.457 38.18-1.42 26.538-1.221 10.708-2.818-.263-1.463-1.183-1.349-1.858-1.395-1.933-.246-1.998 .745 .516 13.405 .973 14.627 1.247 15.36 1.393 15.968 2.253 16.227L41.54 15.86C49.677 15.141 51.804 5.326 49.804-1.321" fill="#0f1420"/>
<path transform="matrix(1,0,0,-1,356.16,189.6)" d="M0 0H-36.72C-37.577 0-41.905-1.486-42.904-1.976-48.135-4.546-50.329-9.391-51.36-14.88H-1.92ZM1.44 1.44C2.026 .853-.114-13.327-.604-14.996-.778-15.586-.92-16.162-1.434-16.566L-52.802-16.322C-52.863-8.98-49.015-2.563-42.084 .084-41.058 .476-38.081 1.44-37.2 1.44Z" fill="#0f1420"/>
<path transform="matrix(1,0,0,-1,300.96,190.08002)" d="M0 0H-39.6C-40.118 0-43.445-1.3-44.178-1.662-48.965-4.03-51.996-9.594-51.84-14.88H-3.12ZM-1.44-16.32H-53.28C-54.024-10.523-51.036-4.283-46.241-1.039-45.411-.478-41.316 1.44-40.56 1.44H1.2C1.653 1.099 1.806 .944 1.827 .358 1.976-3.94-1.233-11.629-1.44-16.32" fill="#0f1420"/>
<path transform="matrix(1,0,0,-1,573.12,204.48001)" d="M0 0C1.087 6.023-.224 11.927-6.226 14.654L-46.266 14.909-48.96 0ZM-50.16-1.44C-50.784-1.249-50.88-.437-50.856 .169-50.75 2.849-49.092 11.735-48.367 14.527-48.194 15.19-47.916 16-47.201 16.241-35.224 16.363-23.24 16.362-11.261 16.297-8.77 16.284-8.376 17.107-5.424 15.935 1.118 13.34 3.835 4.656 .72-1.44Z" fill="#0f1420"/>
<path transform="matrix(1,0,0,-1,710.4,204)" d="M0 0H48.96L51.362 14.879C42.972 14.678 34.528 15.143 26.137 14.903 22.15 14.789 16.478 14.809 12.717 14.403 6.164 13.696-.125 6.642 0 0M-1.44-1.44C-2.135 3.437 .822 9.362 4.642 12.398 10.318 16.91 13.832 15.507 20.42 15.82 30.02 16.277 40.564 17.033 50.181 16.342 51.068 16.278 51.935 16.189 52.731 15.771L50.4-1.44Z" fill="#0f1420"/>
<path transform="matrix(1,0,0,-1,494.88,113.28)" d="M0 0H-43.92C-44.35 0-48.231-1.398-48.913-1.727-54.372-4.367-57.908-11.416-58.08-17.28H-3.12C-2.612-16.99-2.565-16.558-2.422-16.058-1.038-11.238-.975-5.008 0 0M.24 1.44C.5 1.396 .989 .965 1.362 .88L-1.506-18.175C-16.594-18.535-31.728-17.926-46.82-18.22-48.8-18.259-58.562-19.594-59.451-18.172-59.721-11.576-55.667-3.505-49.624-.536-48.625-.046-44.297 1.44-43.44 1.44Z" fill="#0f1420"/>
<path transform="matrix(1,0,0,-1,706.56,189.12003)" d="M0 0H-37.68C-38.87 0-42.473-1.485-43.696-2.144-48.356-4.653-51.247-9.659-51.838-14.877L-2.679-15.388ZM.72 1.44C1.763 .717 1.465-.516 1.382-1.614 1.026-6.351-.742-11.984-1.504-16.737L-52.825-16.106C-53.743-12.592-51.354-7.281-48.95-4.57-47.182-2.574-41.172 1.44-38.64 1.44Z" fill="#0f1420"/>
<path transform="matrix(1,0,0,-1,367.2,137.28)" d="M0 0H-17.04L-23.52-36.48H-6.72ZM-24.96-37.92C-23.333-26.41-21.86-14.667-19.54-3.26-19.286-2.008-19.008 1.92-17.52 1.92H.72L1.387 1.123-5.37-37.11-6-37.92Z" fill="#3a291b"/>
<path transform="matrix(1,0,0,-1,533.28,136.80002)" d="M0 0H-16.08C-16.862-.601-16.98-1.344-17.229-2.211-19.454-9.97-22.111-26.171-22.981-34.38-23.072-35.242-23.066-36.1-23.04-36.96H-6.96ZM-5.28-38.4H-24.24C-24.607-38.4-25.159-37.301-24.936-36.791-21.864-25.625-21.66-12.292-18.589-1.331-18.405-.676-17.728 1.44-17.04 1.44H1.2C1.567 1.44 2.119 .34 1.897-.169Z" fill="#3a291b"/>
<path transform="matrix(1,0,0,-1,571.68,210.72)" d="M0 0H-14.88L-20.64-32.16H-5.28ZM1.44 1.44-4.32-33.6H-21.84L-22.466-32.518-16.32 1.44Z" fill="#3a291b"/>
<path transform="matrix(1,0,0,-1,592.8,210.72)" d="M0 0H-14.88L-19.68-32.16H-5.76ZM1.44 1.44-5.04-33.6H-20.88C-21.047-33.6-21.45-33.064-21.534-32.803L-16.32 1.44Z" fill="#3a291b"/>
<path transform="matrix(1,0,0,-1,517.44,243.36002)" d="M0 0H14.16L20.158 32.637 5.728 32.912ZM20.88 34.56C21.796 33.942 21.654 32.931 21.605 31.94 21.173 23.106 17.697 11.286 16.381 2.1 16.236 1.081 16.331 .054 16.322-.962 13.719-.459-.198-2.475-1.229-.992-1.569-.297-1.484 .441-1.445 1.18-.922 11.093 3.277 22.68 3.877 32.843 3.817 33.362 4.764 34.56 5.04 34.56Z" fill="#3a291b"/>
<path transform="matrix(1,0,0,-1,613.92,210.72)" d="M0 0H-14.88L-20.64-32.16H-5.76ZM1.44 1.44-4.32-33.6H-22.08L-16.32 1.44Z" fill="#3a291b"/>
<path transform="matrix(1,0,0,-1,648.0005,210.7222)" d="M0 0C-2.337-.227-14.206 1.425-15.149 .031L-20.172-32.42-5.808-32.109ZM1.442 1.444-4.551-33.127-21.629-33.877C-22.566-33.19-21.644-29.053-21.461-27.737-20.107-17.99-17.849-8.236-16.086 1.448-14.959 2.768-1.217 1.486 1.442 1.444" fill="#3a291b"/>
<path transform="matrix(1,0,0,-1,234.24,190.08002)" d="M0 0H-23.76C-26.216-4.775-28.667-9.804-30.24-14.88H.48ZM-31.92-16.32-32.572-15.203-24.966 1.206C-19.462 1.752-13.899 1.294-8.38 1.42-6.851 1.455 1.056 2.856 1.46 1.121 .885-4.036 2.54-9.59 1.944-14.664 1.862-15.363 1.885-15.899 1.2-16.32Z" fill="#0f1420"/>
<path transform="matrix(1,0,0,-1,428.64,189.6)" d="M0 0H-24L-30.24-14.88H.48ZM-32.16-16.32C-33.001-15.467-25.817-1.364-25.204 .964L-23.787 1.467 .991 1.23 2.378-15.168C2.487-15.568 1.885-16.32 1.68-16.32Z" fill="#0f1420"/>
<path transform="matrix(1,0,0,-1,490.56,189.6)" d="M0 0H-14.64C-17.186-4.756-19.353-9.778-21.12-14.88H.96ZM1.44 1.44C1.186-1.02 3.207-15.235 1.951-16.111-4.208-16.659-10.413-16.109-16.58-16.3-17.981-16.344-21.952-17.573-22.838-16.351-23.26-15.683-22.969-15.05-22.838-14.376-22.563-12.969-17.532-1.247-16.679 .119-16.367 .62-16.108 1.102-15.6 1.44Z" fill="#0f1420"/>
<path transform="matrix(1,0,0,-1,351.36,130.56)" d="M0 0H16.08L19.678 17.277 2.467 16.733ZM21.12 18.72C21.776 18.061 18.641 2.025 18.108 .372 17.875-.351 17.661-.948 17.04-1.44H-1.92L1.075 17.405C1.16 17.787 1.97 18.72 2.16 18.72Z" fill="#0f1420"/>
<path transform="matrix(1,0,0,-1,522.24,189.6)" d="M0 0H-14.16C-16.854-4.619-18.968-9.857-20.64-14.88H-6.48ZM-22.56-16.32C-22.641-15.481-22.556-14.721-22.334-13.906-21.782-11.88-17.312-1.653-16.2 .12-15.886 .619-15.63 1.103-15.12 1.44H1.2C1.531 1.44 2.175 .388 1.84-.125L-5.52-16.32Z" fill="#0f1420"/>
<path transform="matrix(1,0,0,-1,596.64,189.6)" d="M0 0H-14.64L-17.76-14.88H-3.12ZM1.44 1.44-1.44-16.32H-19.2L-16.711 .63-16.08 1.44Z" fill="#0f1420"/>
<path transform="matrix(1,0,0,-1,458.88,189.6)" d="M0 0H-15.36L-13.92-14.88H.48ZM-15.36-16.32-16.8 1.44H.72L1.439 .24C1.584-4.279 1.799-8.709 1.896-13.221 1.923-14.441 2.868-15.548 1.68-16.32Z" fill="#0f1420"/>
<path transform="matrix(1,0,0,-1,162.24,189.6)" d="M0 0H-14.88L-17.282-15.362C-12.343-15.248-7.342-15.731-2.467-14.813ZM-18.72-16.8C-19.273-16.246-17.462-5.901-17.129-4.231-16.761-2.384-16.613-.005-15.6 1.44H.72C.889 1.44 1.955 .374 1.804-.131 .137-4.501 .484-11.424-1.052-15.508-1.31-16.196-4.317-16.8-5.04-16.8Z" fill="#0f1420"/>
<path transform="matrix(1,0,0,-1,325.4394,269.2782)" d="M0 0C-.627-10.925-1.279-21.971-2.402-32.88-5.131-59.417-9.205-84.415-17.751-109.69-18.734-112.597-21.171-117.005-21.558-119.803-23.312-132.488-21.348-147.087-22.563-159.598-24.26-177.06-41.965-185.824-57.081-176.844-75.005-166.194-64.926-139.389-68.659-122.139-59.205-105.039-52.971-86.296-48.037-67.404-42.381-45.747-38.152-22.923-37.922-.479Z" fill="#fefefe"/>
<path transform="matrix(1,0,0,-1,559.68,268.32)" d="M0 0C-1.207-40.828 9.835-82.057 27.699-118.38 24.242-137.717 36.008-163.924 15.995-176.555 2.51-185.065-18.14-174.647-18.281-158.637-18.355-150.13-18.425-141.751-18.74-133.22-18.897-128.969-18.149-123.277-18.75-119.31-19.185-116.436-21.958-110.186-22.904-106.663-29.907-80.553-36.387-52.836-37.46-25.7-37.72-19.112-38.197-7.901-37.464-1.656-37.382-.957-37.405-.421-36.72 0Z" fill="#fefefe"/>
<path transform="matrix(1,0,0,-1,247.2025,269.7575)" d="M0 0C-.07-9.276-1.755-18.391-3.511-27.454-9.853-60.183-18.872-92.373-38.303-119.862-39.177-130.649-38.987-141.577-38.902-152.422-38.889-154.119-38.31-155.695-38.384-157.701-39.505-188.165-81.892-187.663-84.024-157.224-84.849-145.448-82.857-133.084-83.493-121.232-80.683-114.283-75.686-108.533-71.803-102.202-53.042-71.612-39.05-36.912-38.405-.48Z" fill="#fefefe"/>
<path transform="matrix(1,0,0,-1,481.92,268.80003)" d="M0 0C.31-1.739-.441-3.38-.5-5.02-1.681-38.221 1.4-76.472 7.828-109.052 8.509-112.502 10.218-117.042 10.564-120.236 11.343-127.428 10.15-135.139 10.057-142.297 9.915-153.25 11.69-159.918 5.842-170.242-3.971-187.568-27.777-182.155-34.312-165.112-36.296-159.937-34.338-155.479-34.06-150.02-32.395-117.295-38.703-82.644-38.42-49.7L-38.4 0Z" fill="#fefefe"/>
<path transform="matrix(1,0,0,-1,168.4821,270.23783)" d="M0 0C.19-2.936-.624-5.793-1.197-8.647-9.03-47.631-24.831-89.733-53.078-118.546-53.606-119.085-54.593-118.834-54.894-119.637-54.409-129.418-54.987-139.266-54.742-149.062-54.543-157.027-52.834-159.753-56.702-167.703-65.607-186.006-91.31-185.189-97.67-167.03-100.835-157.995-98.592-141.303-98.382-131.302-98.328-128.727-99.138-121.101-98.666-119.503-97.797-116.568-88.72-108.145-86.155-105.129-74.747-91.712-64.107-77.588-55.912-61.932-45.955-42.913-39.386-22.41-36.051-1.154-35.13 .033-31.182-.591-29.527-.477-28.579-.411-27.684-.025-26.662 .018-17.81 .39-8.857-.302 0 0" fill="#fefefe"/>
<path transform="matrix(1,0,0,-1,366.24,269.28)" d="M0 0H36.24C37.441-2.363 37.061-6.529 36.983-9.383 36.475-27.98 36.043-46.523 35.045-65.045 33.348-96.553 29.785-127.899 31.638-159.558 26.966-174.165 15.151-183.064-.327-176.727-19.67-168.807-13.81-146.425-13.897-129.817-13.904-128.447-14.39-127.291-14.42-126.02-14.594-118.695-12.679-114.866-11.178-108.102-4.586-78.374-2.342-47.918-.485-17.515-.13-11.702 .007-5.824 0 0" fill="#fefefe"/>
<path transform="matrix(1,0,0,-1,206.4,270.24003)" d="M0 0C-.325-43.994-21.104-83.865-45.018-119.382-45.624-132.484-44.396-146.117-45.606-159.114-48.398-189.09-84.156-187.539-89.127-160.887-91.446-148.454-89.777-134.398-90.709-121.691-79.706-108.406-68.757-94.705-60.398-79.522-53.203-66.454-47.986-50.925-43.816-36.584-40.368-24.724-37.133-12.201-35.52 0Z" fill="#0000fc"/>
<path transform="matrix(1,0,0,-1,750.24,446.88)" d="M0 0C-8.811 2.866-11.487 3.713-16.477 11.618-23.207 22.279-20.403 29.275-20.14 41.02-19.986 47.908-20.384 54.715-20.738 61.582-40.298 82.359-55.898 107.092-65.289 134.151-70.259 148.473-73.878 163.781-73.44 179.04H-37.44C-36.251 143.818-18.864 111.721 2.21 84.53 9.135 75.594 16.569 66.882 24.87 59.19 25.096 49.283 25.383 39.416 25.42 29.5 25.427 27.687 26.001 25.89 25.938 23.738 25.493 8.663 17.486-3.039 .96 0 .854 .02 .646 .498 .301 .407Z" fill="#fefefe"/>
<path transform="matrix(1,0,0,-1,599.5175,268.3175)" d="M0 0 36.753 .028C36.739-43.255 54.518-85.017 81.026-118.419L82.1-152.9C81.181-169.741 65.545-183.555 48.791-176.094 30.652-168.017 36.823-147.218 36.505-131.26 36.417-126.825 35.639-122.045 35.893-117.472 32.682-111.372 28.644-105.741 25.36-99.685 8.867-69.272 .892-34.591 0 0" fill="#fefefe"/>
<path transform="matrix(1,0,0,-1,405.84,268.80003)" d="M0 0H35.04C35.725-.421 35.702-.957 35.784-1.656 37.35-14.996 33.874-31.204 35.26-44.9 35.283-46.035 35.75-47.084 35.78-48.22 36.373-71.094 37.154-94.035 38.645-116.875 39.511-130.136 41.562-151.214 37.544-163.784 32.144-180.676 10.556-185.266-.71-171.11-5.377-165.244-5.063-161.331-5.525-154.325-8.131-114.845-1.572-74.069-.7-34.34-.479-24.275-1.865-11.203-.744-1.656-.662-.957-.685-.421 0 0" fill="#0000fc"/>
<path transform="matrix(1,0,0,-1,483.8375,268.79753)" d="M0 0 36.033 .268 36.413-.308 35.983-20.422C37.002-48.823 42.84-76.865 50.059-104.266 51.16-108.444 54.148-115.267 54.693-118.832 55.577-124.619 55.025-134.207 55.183-140.422 55.445-150.792 57.958-161.876 50.872-170.632 41.248-182.524 24.039-180.59 15.164-168.921 6.345-157.324 12.841-133.663 11.002-119.803 10.625-116.966 8.951-112.733 8.311-109.534 1.069-73.343-.386-36.877 0 0" fill="#0000fc"/>
<path transform="matrix(1,0,0,-1,285.12,269.76)" d="M0 0C-.024-23.086-4.612-46.624-10.597-68.843-15.192-85.899-20.962-104.378-30.248-119.266-31.924-135.691-22.247-171.429-43.682-177.838-65.473-184.354-75.031-166.873-74.9-147.62-73.97-139.816-75.327-130.161-74.411-122.629-74.071-119.837-67.064-109.78-65.197-106.403-51.171-81.029-43.907-53.462-38.55-25.05-36.989-16.773-35.91-8.43-35.52 0Z" fill="#0000fc"/>
<path transform="matrix(1,0,0,-1,674.4,267.84004)" d="M0 0C-.177-9.232 1.078-18.399 3.114-27.366 9.409-55.099 24.311-84.35 42.252-106.308 44.879-109.523 50.094-114.138 52.057-117.143 52.677-118.091 53.018-119.179 53.238-120.282 53.047-132.267 53.575-144.806 52.82-156.74 52.02-169.387 44.437-178.962 30.937-178.583 2.523-177.786 9.571-137.062 9.045-118.415-6.096-100.885-17.905-79.05-25.799-57.239-32.449-38.86-35.768-19.597-36 0Z" fill="#0000fc"/>
<path transform="matrix(1,0,0,-1,363.84,269.28)" d="M0 0C.429-6.841-.565-13.609-.955-20.405-2.686-50.595-4.578-79.324-11.367-108.873-13.227-116.966-14.016-117.727-13.9-126.46-13.764-136.733-12.812-160.609-17.512-168.968-22.343-177.56-34.341-181.717-43.527-178.167-66.616-169.243-56.347-139.416-57.936-120.782-42.173-83.057-39.036-41.663-36.001-1.199L-35.28 0Z" fill="#0000fc"/>
<path transform="matrix(1,0,0,-1,750,267.36003)" d="M0 0C.393-.061 1.056-.511 1.553-.608 3.569-12.43 5.485-24.364 9.342-35.778 18.563-63.064 41.321-95.896 64.121-113.479 65.835-114.801 71.291-117.737 71.657-119.383 71.952-131.282 73.073-144.404 72.26-156.26 71.161-172.26 59.003-183.727 42.71-177.61 25.303-171.076 27.887-151.315 27.577-136.103 27.465-130.594 27.529-125.019 27.856-119.53 19.407-112.311 12.162-103.726 5.33-94.99-15.918-67.82-34.045-35.424-34.8 0Z" fill="#0000fc"/>
<path transform="matrix(1,0,0,-1,597.12,268.32)" d="M0 0C1.141-41.515 12.301-82.792 35.734-117.146L36.022-118.298C35.826-134.941 42.184-177.323 17.06-179.061-16.312-181.369-6.547-138.491-7.279-117.961-25.148-81.784-36.392-40.721-35.04 0Z" fill="#0000fc"/>
<path transform="matrix(1,0,0,-1,67.68,388.32)" d="M0 0C-.107-.099-.784-.11-1.194-.468-3.554-2.527-6.791-6.454-9.848-3.847-13.426-.796-10.986 1.19-10.558 4.798-12.378 4.033-13.996 6.241-14.205 6.264-15.354 6.395-15.927 5.277-16.786 5.015-17.383 4.833-22.859 3.772-23.3 3.788-24.21 3.822-23.772 4.778-24.7 4.851-26.508 4.994-27.625 4.026-29.097 3.858-30.375 3.711-33.299 3.994-34.919 3.991-36.357 3.989-36.015 3.518-36 5.28-20.618 19.935-6.82 36.228 3.443 54.877 13.91 73.898 22.755 95.278 24.478 117.122L60.238 118.079 61.385 117.323C57.228 82.16 41.34 48.686 18.967 21.593 13.968 15.54 5.463 5.053 0 0" fill="#0020fb"/>
<path transform="matrix(1,0,0,-1,31.68,383.04)" d="M0 0C-.015-1.762-.357-1.291 1.081-1.289 2.701-1.286 5.625-1.569 6.903-1.422 8.375-1.254 9.492-.286 11.3-.429 12.228-.502 11.79-1.458 12.7-1.492 13.141-1.508 18.617-.447 19.214-.265 20.073-.003 20.646 1.115 21.795 .984 22.004 .961 23.622-1.247 25.442-.482 25.014-4.09 22.574-6.076 26.152-9.127 29.209-11.734 32.446-7.807 34.806-5.748 35.216-5.39 35.893-5.379 36-5.28L34.982-48.662C31.435-73.916-5.73-74.332-9.544-47.704-10.83-38.722-10.19-23.018-9.62-13.66-9.539-12.327-9.138-8.246-8.666-7.414-7.423-5.222-2.006-1.911 0 0" fill="#0000fc"/>
<path transform="matrix(1,0,0,-1,754.08,258.72)" d="M0 0C-.848 .02-2.443-.014-3.36 0-2.425 .771-.935 .771 0 0" fill="#3a291b"/>
<path transform="matrix(1,0,0,-1,751.2,446.88)" d="M0 0-.288-.466C-.645-.521-.833-.041-.96 0L-.659 .407C-.314 .498-.106 .02 0 0" fill="#3a291b"/>
<path transform="matrix(1,0,0,-1,460.32,210.72)" d="M0 0 .482-9.602 2.129-9.628 6.48 0H31.44L32.16-.72V-9.12C35.947-9.286 36.446 0 39.6 0H52.8L39.12-32.64H19.2C18.943-25.831 18.332-19.023 17.755-12.237 17.695-11.53 18.144-10.841 17.037-11.035 16.143-10.984 15.919-11.838 15.575-12.455 12.143-18.607 10.498-26.767 6.48-32.64H-12.96L-15.36 0Z" fill="#fc7106"/>
<path transform="matrix(1,0,0,-1,480.24,137.28)" d="M0 0C6.135-1.022 8.155-7.931 7.913-13.197 7.479-22.637 3.956-34.271-6.701-36.019L-51.121-36.478-48.216-19.705-10.626-19.134C-9.278-18.68-8.693-13.41-10.08-12.48H-36.96C-37.223-12.48-41.029-10.222-41.491-9.811-44.094-7.494-45.295-3.402-44.88 0Z" fill="#fc7106"/>
<path transform="matrix(1,0,0,-1,428.16,137.28)" d="M0 0-4.766-6.065C-3.371-8.151-1.593-10.008-1.439-12.712L-5.37-35.67-6-36.48H-22.56L-18.72-12.96H-39.12L-44.88-36.96H-60.96L-54.72 0Z" fill="#fc7106"/>
<path transform="matrix(1,0,0,-1,344.88,211.20001)" d="M0 0C3.192-.641 5.214-4.977 5.514-7.926 6.332-15.954 3.569-28.972-5.054-31.905-8.097-32.941-8.464-32.147-11.021-32.138-23.107-32.098-35.202-32.212-47.282-32.161L-44.88-17.28H-9.84C-9.244-12.099-8.201-11.472-13.902-11.022-24.443-10.19-40.139-15.294-41.52 0Z" fill="#fc7106"/>
<path transform="matrix(1,0,0,-1,242.4,243.84003)" d="M0 0 1.917 14.403 36.16 14.861C36.823 15.014 37.782 20.494 36.72 21.12H13.2C8.666 21.12 4.263 28.332 5.28 32.64H46.32C48.076 32.64 51.623 28.306 52.183 26.502 53.575 22.014 51.58 11.719 49.355 7.525 47.121 3.315 42.574 0 37.68 0Z" fill="#fc7106"/>
<path transform="matrix(1,0,0,-1,703.68,242.88)" d="M0 0 2.422 15.336 36.201 14.852C36.536 15.767 38.19 21.6 36.72 21.6H11.76C11.566 21.6 8.725 23.219 8.393 23.513 6.76 24.962 3.912 32.64 6 32.64H45.36C46.621 32.64 49.894 29.917 50.661 28.821 53.047 25.414 52.349 20.542 51.779 16.622 50.602 8.545 47.49 2.447 38.906 .694 38.078 .525 34.921 0 34.32 0Z" fill="#fc7106"/>
<path transform="matrix(1,0,0,-1,669.12,210.24002)" d="M0 0C-.444-5.044-2.646-11.252-2.853-16.154-2.877-16.709-2.676-17.76-2.16-17.76H15.84L16.597-11.985C15.66-10.705 10.058-12.458 9.659-10.763L11.52 0H33.6C32.764-6.841 32.074-15.053 30.011-21.611 25.755-35.136 12.53-32.064 1.18-32.14-.066-32.149-1.248-32.65-2.617-32.663-5.298-32.689-11.605-32.676-13.947-31.947-16.007-31.305-18.384-27.759-18.677-25.638-19.284-21.244-16.753-7.69-15.691-2.789-15.481-1.816-15.47-.692-14.64 0Z" fill="#fc7106"/>
<path transform="matrix(1,0,0,-1,410.4,210.72)" d="M0 0C.71-.688-4.688-9.636-4.802-11.321-5.02-14.534 3.154-12.354 5.079-12.023L4.32 0H19.68L21.6-32.16H6.72L6.172-24.547-10.566-25.194-14.242-32.179-28.318-32.638-14.88 0Z" fill="#fc7106"/>
<path transform="matrix(1,0,0,-1,215.52,211.20001)" d="M0 0C.84-.8-5.025-10.856-4.32-12.96H5.76L4.822-1.152C4.713-.752 5.315 0 5.52 0H19.44L22.082-32.639 7.198-33.123 6.72-25.44H-10.56L-13.68-32.64H-28.32L-14.16 0Z" fill="#fc7106"/>
<path transform="matrix(1,0,0,-1,287.04,173.76001)" d="M0 0 5.81 35.949 55.202 36.482 53.736 24.026 20.612 23.308 16.32 0Z" fill="#fc7106"/>
<path transform="matrix(1,0,0,-1,158.4,211.20001)" d="M0 0C.704-.706-2.768-13.906-2.856-16.151-2.878-16.704-2.675-17.76-2.16-17.76H26.88L24.161-32.659-20.638-33.117-14.16 0Z" fill="#fc7106"/>
<path transform="matrix(1,0,0,-1,103.2,211.20001)" d="M0 0-2.88-17.76H31.2C30.182-21.895 30.118-28.533 28.709-32.309 28.569-32.685 28.453-32.968 28.017-33.057 16.177-32.49 3.298-34.027-8.419-33.139-16.558-32.522-19.254-29.501-18.714-21.366-18.254-14.437-15.638-7.05-15.36 0Z" fill="#fc7106"/>
<path transform="matrix(1,0,0,-1,498.24,130.08002)" d="M0 0 3.328 16.112C21.616 16.232 39.812 16.816 58.082 16.802L55.68 0Z" fill="#0020fb"/>
<path transform="matrix(1,0,0,-1,346.56,113.76001)" d="M0 0C.571-.573-1.977-14.611-2.491-15.989-2.631-16.365-2.747-16.648-3.183-16.737-17.862-17.244-32.628-16.284-47.3-16.78-48.449-16.819-51.879-18.079-52.258-16.523L-49.44 0Z" fill="#0020fb"/>
<path transform="matrix(1,0,0,-1,430.08,130.56)" d="M0 0H-55.2L-52.353 17.073C-44.633 17.341-36.78 17.423-29.02 17.3-22.586 17.198-15.258 17.386-8.86 16.82-.615 16.09 1.782 6.982 0 0" fill="#0020fb"/>
<path transform="matrix(1,0,0,-1,89.28,204.96002)" d="M0 0C-.339 5.004 2.986 10.172 7.04 12.88 13.234 17.016 23.469 14.929 30.46 14.86 37.584 14.79 44.722 14.955 51.841 14.878L49.44 0Z" fill="#0020fb"/>
<path transform="matrix(1,0,0,-1,600.48,204)" d="M0 0 2.403 14.397C14.833 13.703 28.265 15.329 40.58 14.42 42.054 14.311 43.144 14.232 44.495 13.535 48.425 11.508 50.25 3.641 48.24 0Z" fill="#0020fb"/>
<path transform="matrix(1,0,0,-1,356.16,189.6)" d="M0 0-1.92-14.88H-51.36C-50.329-9.391-48.135-4.546-42.904-1.976-41.905-1.486-37.577 0-36.72 0Z" fill="#0020fb"/>
<path transform="matrix(1,0,0,-1,300.96,190.08002)" d="M0 0-3.12-14.88H-51.84C-51.996-9.594-48.965-4.03-44.178-1.662-43.445-1.3-40.118 0-39.6 0Z" fill="#0020fb"/>
<path transform="matrix(1,0,0,-1,573.12,204.48001)" d="M0 0H-48.96L-46.266 14.909-6.226 14.654C-.224 11.927 1.087 6.023 0 0" fill="#0020fb"/>
<path transform="matrix(1,0,0,-1,710.4,204)" d="M0 0C-.125 6.642 6.164 13.696 12.717 14.403 16.478 14.809 22.15 14.789 26.137 14.903 34.528 15.143 42.972 14.678 51.362 14.879L48.96 0Z" fill="#0020fb"/>
<path transform="matrix(1,0,0,-1,494.88,113.28)" d="M0 0C-.975-5.008-1.038-11.238-2.422-16.058-2.565-16.558-2.612-16.99-3.12-17.28H-58.08C-57.908-11.416-54.372-4.367-48.913-1.727-48.231-1.398-44.35 0-43.92 0Z" fill="#0020fb"/>
<path transform="matrix(1,0,0,-1,706.56,189.12003)" d="M0 0-2.679-15.388-51.838-14.877C-51.247-9.659-48.356-4.653-43.696-2.144-42.473-1.485-38.87 0-37.68 0Z" fill="#0020fb"/>
<path transform="matrix(1,0,0,-1,367.2,137.28)" d="M0 0-6.72-36.48H-23.52L-17.04 0Z" fill="#fc7106"/>
<path transform="matrix(1,0,0,-1,533.28,136.80002)" d="M0 0-6.96-36.96H-23.04C-23.066-36.1-23.072-35.242-22.981-34.38-22.111-26.171-19.454-9.97-17.229-2.211-16.98-1.344-16.862-.601-16.08 0Z" fill="#fc7106"/>
<path transform="matrix(1,0,0,-1,571.68,210.72)" d="M0 0-5.28-32.16H-20.64L-14.88 0Z" fill="#fc7106"/>
<path transform="matrix(1,0,0,-1,592.8,210.72)" d="M0 0-5.76-32.16H-19.68L-14.88 0Z" fill="#fc7106"/>
<path transform="matrix(1,0,0,-1,517.44,243.36002)" d="M0 0 5.728 32.912 20.158 32.637 14.16 0Z" fill="#fc7106"/>
<path transform="matrix(1,0,0,-1,613.92,210.72)" d="M0 0-5.76-32.16H-20.64L-14.88 0Z" fill="#fc7106"/>
<path transform="matrix(1,0,0,-1,648.0005,210.7222)" d="M0 0-5.808-32.109-20.172-32.42-15.149 .031C-14.206 1.425-2.337-.227 0 0" fill="#fc7106"/>
<path transform="matrix(1,0,0,-1,234.24,190.08002)" d="M0 0 .48-14.88H-30.24C-28.667-9.804-26.216-4.775-23.76 0Z" fill="#0020fb"/>
<path transform="matrix(1,0,0,-1,428.64,189.6)" d="M0 0 .48-14.88H-30.24L-24 0Z" fill="#0020fb"/>
<path transform="matrix(1,0,0,-1,490.56,189.6)" d="M0 0 .96-14.88H-21.12C-19.353-9.778-17.186-4.756-14.64 0Z" fill="#0020fb"/>
<path transform="matrix(1,0,0,-1,351.36,130.56)" d="M0 0 2.467 16.733 19.678 17.277 16.08 0Z" fill="#0020fb"/>
<path transform="matrix(1,0,0,-1,522.24,189.6)" d="M0 0-6.48-14.88H-20.64C-18.968-9.857-16.854-4.619-14.16 0Z" fill="#0020fb"/>
<path transform="matrix(1,0,0,-1,596.64,189.6)" d="M0 0-3.12-14.88H-17.76L-14.64 0Z" fill="#0020fb"/>
<path transform="matrix(1,0,0,-1,458.88,189.6)" d="M0 0 .48-14.88H-13.92L-15.36 0Z" fill="#0020fb"/>
<path transform="matrix(1,0,0,-1,162.24,189.6)" d="M0 0-2.467-14.813C-7.342-15.731-12.343-15.248-17.282-15.362L-14.88 0Z" fill="#0020fb"/>
</g>
</g>
</svg>
