<?xml version="1.0" standalone="no"?>
<!DOCTYPE svg PUBLIC "-//W3C//DTD SVG 20010904//EN"
 "http://www.w3.org/TR/2001/REC-SVG-20010904/DTD/svg10.dtd">
<svg version="1.0" xmlns="http://www.w3.org/2000/svg"
 width="896.000000pt" height="427.000000pt" viewBox="0 0 896.000000 427.000000"
 preserveAspectRatio="xMidYMid meet">
<metadata>
Created by potrace 1.15, written by Peter Selinger 2001-2017
</metadata>
<g transform="translate(0.000000,427.000000) scale(0.100000,-0.100000)"
fill="#000000" stroke="none">
<path d="M8941 4243 c1 -16 5 -39 9 -53 6 -20 8 -14 9 28 1 28 -3 52 -9 52 -5
0 -10 -12 -9 -27z"/>
<path d="M341 4204 c-74 -20 -104 -44 -136 -111 -30 -63 -45 -167 -27 -185 8
-8 -2 -23 -34 -52 -32 -29 -50 -58 -64 -98 -29 -82 -27 -123 7 -145 24 -16 57
-18 323 -18 325 0 329 1 383 64 51 61 84 190 55 219 -9 9 -5 17 14 35 63 59
79 156 39 236 -35 67 -51 71 -293 70 -152 0 -228 -4 -267 -15z m342 -162 c15
-16 15 -20 1 -40 -13 -19 -24 -22 -94 -22 l-79 0 -68 -60 c-37 -33 -71 -60
-74 -60 -13 0 54 165 73 183 30 26 218 25 241 -1z m-63 -227 c0 -9 -11 -27
-25 -40 -23 -24 -31 -25 -135 -25 -120 0 -129 4 -116 55 l6 25 135 0 c115 0
135 -2 135 -15z"/>
<path d="M1075 4208 c-3 -7 -36 -97 -73 -200 -38 -103 -67 -190 -64 -193 3 -3
93 -5 200 -5 l195 0 55 55 c30 30 56 54 58 53 1 -2 -24 -75 -56 -163 l-58
-160 110 -3 c61 -1 112 -1 114 1 7 7 224 605 224 617 0 7 -35 10 -111 8 l-111
-3 -43 -115 -42 -115 -126 -3 c-70 -1 -127 -1 -127 2 0 3 18 53 40 113 22 59
40 111 40 116 0 13 -220 8 -225 -5z"/>
<path d="M1845 4211 c-18 -31 -75 -207 -75 -236 0 -41 50 -110 100 -136 29
-16 57 -19 168 -19 142 0 156 -5 132 -49 -10 -20 -18 -21 -215 -21 l-203 0
-44 -50 c-24 -27 -51 -63 -61 -80 l-18 -30 313 0 c285 0 317 2 348 18 42 22
97 99 106 150 15 77 -36 181 -102 208 -22 9 -73 14 -152 14 -134 0 -155 9
-134 55 l12 25 204 0 205 0 61 70 c33 39 60 75 60 80 0 13 -697 14 -705 1z"/>
<path d="M3073 4168 c-22 -29 -48 -65 -58 -80 l-17 -28 220 0 c185 0 222 -2
232 -15 10 -12 10 -21 2 -40 -11 -24 -15 -25 -108 -25 l-96 0 -90 -77 -89 -78
155 -3 c147 -2 156 -4 156 -22 0 -41 -45 -50 -248 -50 l-190 0 -30 -34 c-16
-19 -44 -55 -61 -80 l-32 -46 298 0 c165 0 318 5 342 11 65 15 100 45 133 115
38 80 45 126 25 154 -15 21 -14 24 13 46 77 65 80 196 5 271 l-33 33 -245 0
-245 0 -39 -52z"/>
<path d="M3968 4210 c-107 -32 -218 -173 -218 -275 0 -38 5 -52 29 -76 l29
-29 176 0 c97 0 176 -4 176 -9 0 -5 -16 -23 -35 -40 l-36 -31 -169 0 -168 0
-57 -62 c-98 -109 -118 -100 202 -96 l278 3 45 27 c62 36 123 102 157 168 25
49 28 65 28 155 0 55 -3 112 -7 127 -11 38 -54 86 -98 108 -62 32 -266 50
-332 30z m161 -187 l36 -38 -74 -3 c-85 -3 -101 1 -101 24 0 30 31 54 68 54
26 0 42 -8 71 -37z"/>
<path d="M4620 4168 c-23 -28 -48 -64 -56 -80 l-15 -28 220 0 c184 0 221 -2
231 -15 10 -12 10 -21 2 -40 -11 -24 -15 -25 -109 -25 l-98 0 -89 -77 -90 -78
157 -3 c167 -3 181 -8 136 -48 -19 -17 -43 -20 -227 -24 l-205 -5 -55 -78 -55
-78 324 3 c312 3 326 4 365 25 46 25 71 62 105 154 22 59 22 63 6 91 -17 29
-16 30 12 54 64 54 76 154 28 239 -36 63 -44 65 -309 65 l-238 0 -40 -52z"/>
<path d="M5805 4208 c-2 -7 -20 -55 -40 -106 -39 -105 -42 -129 -19 -175 45
-89 87 -107 254 -107 140 0 154 -5 130 -49 -10 -20 -18 -21 -214 -21 l-204 0
-30 -34 c-16 -19 -44 -55 -61 -80 l-32 -46 318 0 318 0 38 25 c83 57 118 173
78 260 -40 87 -82 105 -240 105 -133 0 -154 9 -133 55 l12 25 204 0 204 0 47
52 c25 28 55 64 66 80 l20 28 -356 0 c-275 0 -357 -3 -360 -12z"/>
<path d="M6748 4205 c-69 -22 -165 -100 -215 -173 -55 -81 -77 -156 -70 -239
7 -87 40 -136 115 -171 55 -26 64 -27 222 -27 162 0 166 1 225 29 74 37 173
133 209 205 54 106 54 228 -1 299 -15 20 -50 46 -82 60 -51 24 -69 26 -206 29
-113 2 -162 -1 -197 -12z m270 -168 c24 -22 35 -74 26 -122 -8 -43 -73 -119
-125 -145 -46 -24 -128 -26 -168 -5 -34 17 -61 70 -61 118 0 54 58 130 125
163 44 21 176 15 203 -9z"/>
<path d="M7396 4114 c-22 -59 -39 -119 -38 -135 1 -54 57 -127 115 -148 16 -6
86 -11 157 -11 137 0 147 -4 127 -47 -10 -23 -12 -23 -216 -23 l-207 0 -57
-74 c-31 -41 -57 -77 -57 -81 0 -3 147 -4 326 -3 l326 3 48 51 c76 84 87 159
34 250 -39 69 -62 78 -199 82 -147 3 -165 7 -165 31 0 52 -2 51 220 51 l208 0
61 72 c34 40 61 76 61 80 0 4 -159 8 -353 8 l-353 0 -38 -106z"/>
<path d="M8383 4205 c-103 -32 -207 -125 -260 -233 -57 -117 -40 -266 38 -324
60 -45 102 -53 269 -53 154 0 155 0 223 32 85 40 170 125 211 208 41 85 48
194 16 260 -29 60 -89 99 -174 114 -85 15 -271 13 -323 -4z m246 -160 c35 -18
41 -32 41 -99 0 -65 -37 -122 -107 -166 -60 -38 -154 -43 -196 -10 -38 30 -62
101 -49 140 18 49 51 90 100 121 39 25 56 29 114 29 41 0 81 -6 97 -15z"/>
<path d="M2550 3900 l-85 -79 139 -1 139 0 81 80 81 80 -135 0 -135 0 -85 -80z"/>
<path d="M5315 3900 l-80 -80 135 0 135 1 85 79 85 79 -140 1 -140 0 -80 -80z"/>
</g>
</svg>
